<svg width="26" height="26" viewBox="0 0 26 26" fill="none" xmlns="http://www.w3.org/2000/svg">
<g clip-path="url(#clip0_6_675)">
<path d="M6.45243 0C5.94333 0 5.53064 0.41269 5.53064 0.921787V2.76531H7.37417V0.921787C7.37417 0.41269 6.96148 0 6.45243 0Z" fill="white"/>
<path d="M19.3571 0C18.8481 0 18.4354 0.41269 18.4354 0.921787V2.76531H20.2789V0.921787C20.2789 0.41269 19.8662 0 19.3571 0Z" fill="white"/>
<path d="M23.0442 2.76532H20.2789V6.45242C20.2789 6.96151 19.8662 7.3742 19.3571 7.3742C18.8481 7.3742 18.4354 6.96151 18.4354 6.45242V2.76532H7.37413V6.45242C7.37413 6.96151 6.96144 7.3742 6.45235 7.3742C5.94325 7.3742 5.53056 6.96151 5.53056 6.45242V2.76532H2.76531C1.23807 2.76532 0 4.00339 0 5.53063V23.0443C0 24.5715 1.23807 25.8096 2.76531 25.8096H23.0442C24.5715 25.8096 25.8095 24.5715 25.8095 23.0443V5.53063C25.8095 4.00339 24.5715 2.76532 23.0442 2.76532ZM23.966 23.0443C23.966 23.5534 23.5533 23.9661 23.0442 23.9661H2.76531C2.25621 23.9661 1.84352 23.5534 1.84352 23.0443V11.0612H23.966V23.0443Z" fill="white"/>
<path d="M7.37414 12.9048H5.53061C5.02152 12.9048 4.60883 13.3175 4.60883 13.8266C4.60883 14.3357 5.02152 14.7484 5.53061 14.7484H7.37414C7.88323 14.7484 8.29593 14.3357 8.29593 13.8266C8.29593 13.3175 7.88323 12.9048 7.37414 12.9048Z" fill="white"/>
<path d="M13.8265 12.9048H11.983C11.4739 12.9048 11.0612 13.3175 11.0612 13.8266C11.0612 14.3357 11.4739 14.7484 11.983 14.7484H13.8265C14.3356 14.7484 14.7483 14.3357 14.7483 13.8266C14.7483 13.3175 14.3356 12.9048 13.8265 12.9048Z" fill="white"/>
<path d="M20.279 12.9048H18.4355C17.9264 12.9048 17.5137 13.3175 17.5137 13.8266C17.5137 14.3357 17.9264 14.7484 18.4355 14.7484H20.279C20.7881 14.7484 21.2008 14.3357 21.2008 13.8266C21.2008 13.3175 20.788 12.9048 20.279 12.9048Z" fill="white"/>
<path d="M7.37414 16.5919H5.53061C5.02152 16.5919 4.60883 17.0045 4.60883 17.5136C4.60883 18.0227 5.02152 18.4354 5.53061 18.4354H7.37414C7.88323 18.4354 8.29593 18.0227 8.29593 17.5136C8.29593 17.0045 7.88323 16.5919 7.37414 16.5919Z" fill="white"/>
<path d="M13.8265 16.5919H11.983C11.4739 16.5919 11.0612 17.0045 11.0612 17.5136C11.0612 18.0227 11.4739 18.4354 11.983 18.4354H13.8265C14.3356 18.4354 14.7483 18.0227 14.7483 17.5136C14.7483 17.0045 14.3356 16.5919 13.8265 16.5919Z" fill="white"/>
<path d="M20.279 16.5919H18.4355C17.9264 16.5919 17.5137 17.0045 17.5137 17.5136C17.5137 18.0227 17.9264 18.4354 18.4355 18.4354H20.279C20.7881 18.4354 21.2008 18.0227 21.2008 17.5136C21.2007 17.0045 20.788 16.5919 20.279 16.5919Z" fill="white"/>
<path d="M7.37414 20.2789H5.53061C5.02152 20.2789 4.60883 20.6916 4.60883 21.2007C4.60883 21.7098 5.02152 22.1224 5.53061 22.1224H7.37414C7.88323 22.1224 8.29593 21.7098 8.29593 21.2007C8.29593 20.6916 7.88323 20.2789 7.37414 20.2789Z" fill="white"/>
<path d="M13.8265 20.2789H11.983C11.4739 20.2789 11.0612 20.6916 11.0612 21.2007C11.0612 21.7098 11.4739 22.1225 11.983 22.1225H13.8265C14.3356 22.1225 14.7483 21.7098 14.7483 21.2007C14.7483 20.6916 14.3356 20.2789 13.8265 20.2789Z" fill="white"/>
<path d="M20.279 20.2789H18.4355C17.9264 20.2789 17.5137 20.6916 17.5137 21.2007C17.5137 21.7098 17.9264 22.1225 18.4355 22.1225H20.279C20.7881 22.1225 21.2008 21.7098 21.2008 21.2007C21.2008 20.6916 20.788 20.2789 20.279 20.2789Z" fill="white"/>
</g>
<defs>
<clipPath id="clip0_6_675">
<rect width="25.8095" height="25.8095" fill="white"/>
</clipPath>
</defs>
</svg>
