<svg width="14" height="14" viewBox="0 0 14 14" fill="none" xmlns="http://www.w3.org/2000/svg">
<path d="M7 11.5V13.5M9.5 10.5V12.5M4.5 10.5V12.5M8.064 3.389C8.00704 3.22612 7.90073 3.08504 7.75985 2.98539C7.61898 2.88574 7.45055 2.83247 7.278 2.833H6.633C6.45007 2.83365 6.2738 2.90167 6.13785 3.02406C6.0019 3.14645 5.91581 3.31464 5.89601 3.49649C5.87622 3.67834 5.92411 3.86111 6.03055 4.00989C6.13698 4.15866 6.2945 4.26301 6.473 4.303L7.456 4.519C7.65616 4.56363 7.83286 4.68045 7.95234 4.84713C8.07181 5.01382 8.12568 5.21867 8.10366 5.42257C8.08164 5.62646 7.98527 5.81509 7.83296 5.95242C7.68064 6.08974 7.48308 6.16614 7.278 6.167H6.722C6.54945 6.16753 6.38102 6.11426 6.24015 6.01461C6.09927 5.91496 5.99296 5.77388 5.936 5.611M7 2.833V2M7 7V6.167M2.75 4.75C2.6837 4.75 2.62011 4.72366 2.57322 4.67678C2.52634 4.62989 2.5 4.5663 2.5 4.5C2.5 4.4337 2.52634 4.37011 2.57322 4.32322C2.62011 4.27634 2.6837 4.25 2.75 4.25C2.8163 4.25 2.87989 4.27634 2.92678 4.32322C2.97366 4.37011 3 4.4337 3 4.5C3 4.5663 2.97366 4.62989 2.92678 4.67678C2.87989 4.72366 2.8163 4.75 2.75 4.75ZM11.25 4.75C11.1837 4.75 11.1201 4.72366 11.0732 4.67678C11.0263 4.62989 11 4.5663 11 4.5C11 4.4337 11.0263 4.37011 11.0732 4.32322C11.1201 4.27634 11.1837 4.25 11.25 4.25C11.3163 4.25 11.3799 4.27634 11.4268 4.32322C11.4737 4.37011 11.5 4.4337 11.5 4.5C11.5 4.5663 11.4737 4.62989 11.4268 4.67678C11.3799 4.72366 11.3163 4.75 11.25 4.75Z" stroke="black" stroke-linecap="round" stroke-linejoin="round"/>
<path d="M12.5 0.5H1.5C1.23478 0.5 0.98043 0.605357 0.792893 0.792893C0.605357 0.98043 0.5 1.23478 0.5 1.5V7.5C0.5 7.76522 0.605357 8.01957 0.792893 8.20711C0.98043 8.39464 1.23478 8.5 1.5 8.5H12.5C12.7652 8.5 13.0196 8.39464 13.2071 8.20711C13.3946 8.01957 13.5 7.76522 13.5 7.5V1.5C13.5 1.23478 13.3946 0.98043 13.2071 0.792893C13.0196 0.605357 12.7652 0.5 12.5 0.5Z" stroke="black" stroke-linecap="round" stroke-linejoin="round"/>
</svg>
