<svg width="35" height="35" viewBox="0 0 35 35" fill="none" xmlns="http://www.w3.org/2000/svg">
<path fill-rule="evenodd" clip-rule="evenodd" d="M16.0417 24.7917C17.1907 24.7917 18.3285 24.5653 19.3901 24.1256C20.4517 23.6859 21.4163 23.0414 22.2289 22.2289C23.0414 21.4163 23.6859 20.4517 24.1256 19.3901C24.5653 18.3285 24.7917 17.1907 24.7917 16.0417C24.7917 14.8926 24.5653 13.7548 24.1256 12.6932C23.6859 11.6316 23.0414 10.667 22.2289 9.85448C21.4163 9.04197 20.4517 8.39745 19.3901 7.95772C18.3285 7.51799 17.1907 7.29167 16.0417 7.29167C13.721 7.29167 11.4954 8.21354 9.85448 9.85448C8.21354 11.4954 7.29167 13.721 7.29167 16.0417C7.29167 18.3623 8.21354 20.5879 9.85448 22.2289C11.4954 23.8698 13.721 24.7917 16.0417 24.7917ZM16.0417 27.7083C19.1359 27.7083 22.1033 26.4792 24.2912 24.2912C26.4792 22.1033 27.7083 19.1359 27.7083 16.0417C27.7083 12.9475 26.4792 9.98001 24.2912 7.79209C22.1033 5.60416 19.1359 4.375 16.0417 4.375C12.9475 4.375 9.98001 5.60416 7.79209 7.79209C5.60416 9.98001 4.375 12.9475 4.375 16.0417C4.375 19.1359 5.60416 22.1033 7.79209 24.2912C9.98001 26.4792 12.9475 27.7083 16.0417 27.7083Z" fill="white"/>
<path fill-rule="evenodd" clip-rule="evenodd" d="M22.3416 22.2979C22.6161 22.0255 22.9875 21.8732 23.3742 21.8746C23.7609 21.8759 24.1312 22.0308 24.4037 22.3052L30.2006 28.1385C30.4656 28.4143 30.6116 28.7831 30.6073 29.1656C30.6029 29.548 30.4485 29.9134 30.1773 30.183C29.9061 30.4527 29.5398 30.6051 29.1574 30.6072C28.775 30.6094 28.407 30.4613 28.1327 30.1948L22.3358 24.3615C22.0632 24.0872 21.9107 23.7159 21.9117 23.3292C21.9128 22.9425 22.0675 22.5721 22.3416 22.2994V22.2979Z" fill="white"/>
</svg>
